<svg width="17" height="17" viewBox="0 0 17 17" fill="none" xmlns="http://www.w3.org/2000/svg">
<path d="M8.87561 1.21814C8.66809 1.01062 8.33191 1.01062 8.12439 1.21814C7.92284 1.41969 3.1875 6.20587 3.1875 10.625C3.1875 13.5544 5.5706 15.9375 8.5 15.9375C11.4291 15.9375 13.8125 13.5544 13.8125 10.625C13.8125 6.20587 9.07742 1.41969 8.87561 1.21814ZM8.5 14.875C6.15659 14.875 4.25 12.9684 4.25 10.625C4.25 7.32726 7.39755 3.57997 8.50026 2.36884C9.60297 3.57893 12.75 7.32259 12.75 10.625C12.75 12.9684 10.8434 14.875 8.5 14.875Z" fill="#3498DB"/>
<path d="M8.5 12.75C7.32829 12.75 6.375 11.7881 6.375 10.6061C6.375 10.3127 6.13713 10.0748 5.84375 10.0748C5.55037 10.0748 5.3125 10.3127 5.3125 10.6061C5.3125 12.3741 6.74231 13.8125 8.5 13.8125C8.79338 13.8125 9.03125 13.5746 9.03125 13.2812C9.03125 12.9879 8.79338 12.75 8.5 12.75Z" fill="#3498DB"/>
</svg>
