<svg width="152" height="19" viewBox="0 0 152 19" fill="none" xmlns="http://www.w3.org/2000/svg">
<g clip-path="url(#clip0_2:31)">
<rect x="1" y="18" width="151" height="2" rx="1" fill="#3498DB"/>
<path d="M136.876 2.21814C136.668 2.01062 136.332 2.01062 136.124 2.21814C135.923 2.41969 131.188 7.20587 131.188 11.625C131.188 14.5544 133.571 16.9375 136.5 16.9375C139.429 16.9375 141.812 14.5544 141.812 11.625C141.812 7.20587 137.077 2.41969 136.876 2.21814ZM136.5 15.875C134.157 15.875 132.25 13.9684 132.25 11.625C132.25 8.32726 135.398 4.57997 136.5 3.36884C137.603 4.57893 140.75 8.32259 140.75 11.625C140.75 13.9684 138.843 15.875 136.5 15.875Z" fill="#3498DB"/>
<path d="M136.5 13.75C135.328 13.75 134.375 12.7881 134.375 11.6061C134.375 11.3127 134.137 11.0748 133.844 11.0748C133.55 11.0748 133.312 11.3127 133.312 11.6061C133.312 13.3741 134.742 14.8125 136.5 14.8125C136.793 14.8125 137.031 14.5746 137.031 14.2812C137.031 13.9879 136.793 13.75 136.5 13.75Z" fill="#3498DB"/>
<path d="M23.5251 17H21.8288L15.3864 7.13867V17H13.6902V4.20312H15.3864L21.8464 14.1084V4.20312H23.5251V17ZM30.7536 17.1758C29.4645 17.1758 28.4157 16.7539 27.6071 15.9102C26.7985 15.0605 26.3942 13.9268 26.3942 12.5088V12.21C26.3942 11.2666 26.5729 10.4258 26.9304 9.6875C27.2936 8.94336 27.7975 8.36328 28.4421 7.94727C29.0925 7.52539 29.7956 7.31445 30.5514 7.31445C31.7878 7.31445 32.7487 7.72168 33.4343 8.53613C34.1198 9.35059 34.4626 10.5166 34.4626 12.0342V12.7109H28.0202C28.0436 13.6484 28.3161 14.4072 28.8376 14.9873C29.3649 15.5615 30.0329 15.8486 30.8415 15.8486C31.4157 15.8486 31.902 15.7314 32.3005 15.4971C32.6989 15.2627 33.0475 14.9521 33.3464 14.5654L34.3395 15.3389C33.5427 16.5635 32.3473 17.1758 30.7536 17.1758ZM30.5514 8.65039C29.8952 8.65039 29.3444 8.89062 28.8991 9.37109C28.4538 9.8457 28.1784 10.5137 28.0729 11.375H32.8366V11.252C32.7897 10.4258 32.5671 9.78711 32.1686 9.33594C31.7702 8.87891 31.2311 8.65039 30.5514 8.65039ZM40.0827 10.9619L42.192 7.49023H44.0905L40.9791 12.1924L44.1871 17H42.3063L40.109 13.4404L37.9118 17H36.0221L39.2301 12.1924L36.1188 7.49023H37.9996L40.0827 10.9619ZM48.568 5.1875V7.49023H50.3434V8.74707H48.568V14.6445C48.568 15.0254 48.6471 15.3125 48.8053 15.5059C48.9635 15.6934 49.233 15.7871 49.6139 15.7871C49.8014 15.7871 50.0592 15.752 50.3873 15.6816V17C49.9596 17.1172 49.5436 17.1758 49.1393 17.1758C48.4127 17.1758 47.8648 16.9561 47.4957 16.5166C47.1266 16.0771 46.942 15.4531 46.942 14.6445V8.74707H45.2105V7.49023H46.942V5.1875H48.568ZM56.1744 12.2275H51.8853V10.9004H56.1744V12.2275ZM61.3198 12.9658L61.5659 14.6533L61.9263 13.1328L64.4575 4.20312H65.8814L68.3511 13.1328L68.7027 14.6797L68.9751 12.957L70.9614 4.20312H72.6577L69.5552 17H68.0171L65.3804 7.6748L65.1782 6.69922L64.9761 7.6748L62.2427 17H60.7046L57.6109 4.20312H59.2984L61.3198 12.9658ZM78.4888 17.1758C77.1997 17.1758 76.1509 16.7539 75.3423 15.9102C74.5337 15.0605 74.1294 13.9268 74.1294 12.5088V12.21C74.1294 11.2666 74.3081 10.4258 74.6655 9.6875C75.0288 8.94336 75.5327 8.36328 76.1772 7.94727C76.8276 7.52539 77.5307 7.31445 78.2866 7.31445C79.5229 7.31445 80.4839 7.72168 81.1694 8.53613C81.855 9.35059 82.1977 10.5166 82.1977 12.0342V12.7109H75.7554C75.7788 13.6484 76.0513 14.4072 76.5727 14.9873C77.1001 15.5615 77.768 15.8486 78.5766 15.8486C79.1509 15.8486 79.6372 15.7314 80.0356 15.4971C80.4341 15.2627 80.7827 14.9521 81.0815 14.5654L82.0747 15.3389C81.2778 16.5635 80.0825 17.1758 78.4888 17.1758ZM78.2866 8.65039C77.6304 8.65039 77.0796 8.89062 76.6343 9.37109C76.1889 9.8457 75.9136 10.5137 75.8081 11.375H80.5718V11.252C80.5249 10.4258 80.3022 9.78711 79.9038 9.33594C79.5054 8.87891 78.9663 8.65039 78.2866 8.65039ZM90.4985 17C90.4047 16.8125 90.3286 16.4785 90.27 15.998C89.5141 16.7832 88.6118 17.1758 87.5629 17.1758C86.6254 17.1758 85.8549 16.9121 85.2514 16.3848C84.6537 15.8516 84.3549 15.1777 84.3549 14.3633C84.3549 13.373 84.7299 12.6055 85.4799 12.0605C86.2358 11.5098 87.2963 11.2344 88.6616 11.2344H90.2436V10.4873C90.2436 9.91895 90.0737 9.46777 89.7338 9.13379C89.394 8.79395 88.893 8.62402 88.2309 8.62402C87.6508 8.62402 87.1645 8.77051 86.7719 9.06348C86.3793 9.35645 86.183 9.71094 86.183 10.127H84.5483C84.5483 9.65234 84.7153 9.19531 85.0493 8.75586C85.3891 8.31055 85.8461 7.95898 86.4203 7.70117C87.0004 7.44336 87.6362 7.31445 88.3276 7.31445C89.4233 7.31445 90.2817 7.58984 90.9028 8.14062C91.5239 8.68555 91.8461 9.43848 91.8696 10.3994V14.7764C91.8696 15.6494 91.9809 16.3438 92.2036 16.8594V17H90.4985ZM87.8002 15.7607C88.31 15.7607 88.7934 15.6289 89.2504 15.3652C89.7075 15.1016 90.0385 14.7588 90.2436 14.3369V12.3857H88.9692C86.977 12.3857 85.9809 12.9688 85.9809 14.1348C85.9809 14.6445 86.1508 15.043 86.4907 15.3301C86.8305 15.6172 87.267 15.7607 87.8002 15.7607ZM97.1645 5.1875V7.49023H98.9398V8.74707H97.1645V14.6445C97.1645 15.0254 97.2436 15.3125 97.4018 15.5059C97.56 15.6934 97.8295 15.7871 98.2104 15.7871C98.3979 15.7871 98.6557 15.752 98.9838 15.6816V17C98.5561 17.1172 98.14 17.1758 97.7357 17.1758C97.0092 17.1758 96.4613 16.9561 96.0922 16.5166C95.723 16.0771 95.5385 15.4531 95.5385 14.6445V8.74707H93.807V7.49023H95.5385V5.1875H97.1645ZM103.013 8.6416C103.734 7.75684 104.671 7.31445 105.826 7.31445C107.835 7.31445 108.849 8.44824 108.867 10.7158V17H107.241V10.707C107.235 10.0215 107.077 9.51465 106.766 9.18652C106.461 8.8584 105.984 8.69434 105.333 8.69434C104.806 8.69434 104.343 8.83496 103.945 9.11621C103.546 9.39746 103.236 9.7666 103.013 10.2236V17H101.387V3.5H103.013V8.6416ZM115.787 17.1758C114.498 17.1758 113.45 16.7539 112.641 15.9102C111.832 15.0605 111.428 13.9268 111.428 12.5088V12.21C111.428 11.2666 111.607 10.4258 111.964 9.6875C112.327 8.94336 112.831 8.36328 113.476 7.94727C114.126 7.52539 114.829 7.31445 115.585 7.31445C116.822 7.31445 117.783 7.72168 118.468 8.53613C119.154 9.35059 119.496 10.5166 119.496 12.0342V12.7109H113.054C113.077 13.6484 113.35 14.4072 113.871 14.9873C114.399 15.5615 115.067 15.8486 115.875 15.8486C116.45 15.8486 116.936 15.7314 117.334 15.4971C117.733 15.2627 118.081 14.9521 118.38 14.5654L119.373 15.3389C118.576 16.5635 117.381 17.1758 115.787 17.1758ZM115.585 8.65039C114.929 8.65039 114.378 8.89062 113.933 9.37109C113.488 9.8457 113.212 10.5137 113.107 11.375H117.87V11.252C117.824 10.4258 117.601 9.78711 117.202 9.33594C116.804 8.87891 116.265 8.65039 115.585 8.65039ZM126.523 8.94922C126.277 8.9082 126.01 8.8877 125.723 8.8877C124.657 8.8877 123.933 9.3418 123.552 10.25V17H121.926V7.49023H123.508L123.534 8.58887C124.068 7.73926 124.824 7.31445 125.802 7.31445C126.118 7.31445 126.359 7.35547 126.523 7.4375V8.94922Z" fill="#3498DB"/>
</g>
<defs>
<clipPath id="clip0_2:31">
<rect width="152" height="19" fill="white"/>
</clipPath>
</defs>
</svg>
